<?xml version="1.0" encoding="iso-8859-1"?>
<!-- Generator: Adobe Illustrator 19.0.0, SVG Export Plug-In . SVG Version: 6.00 Build 0)  -->
<svg version="1.1" id="Capa_1" xmlns="http://www.w3.org/2000/svg" xmlns:xlink="http://www.w3.org/1999/xlink" x="0px" y="0px"
	 viewBox="0 0 512 512" style="enable-background:new 0 0 512 512; fill: white;" xml:space="preserve">
<g>
	<g>
		<path d="M439.481,183.132V75.29h-89.184v39.234l-94.298-72.542L0,238.919l53.634,69.718l26.261-20.202v181.583h151.519V336.973
			h55.151v133.045h145.543V288.435l26.261,20.202L512,238.92L439.481,183.132z M402.072,439.983h-85.473V306.938H201.378v133.045
			h-91.449V265.329L256,152.965l146.071,112.364V439.983z M452.875,266.518L256,115.064L59.125,266.518l-17.006-22.106L256,79.876
			l124.333,95.648v-70.199h29.114v92.596l60.433,46.491L452.875,266.518z"/>
	</g>
</g>
<g>
</g>
<g>
</g>
<g>
</g>
<g>
</g>
<g>
</g>
<g>
</g>
<g>
</g>
<g>
</g>
<g>
</g>
<g>
</g>
<g>
</g>
<g>
</g>
<g>
</g>
<g>
</g>
<g>
</g>
</svg>
