<svg xmlns="http://www.w3.org/2000/svg" width="94" height="128">
  <path d="M46.977 126.643c-.283-.687-6.163-6.437-10.374-11.662C11.656 81.858-16.158 51.083 16.32 13.683 30.7-.211 48.433-1.003 66.663 5.473c51.33 29.702 14.166 78.155-10.236 110.008l-9.45 11.162zm15.44-50.771C96.654 51.387 70.185 4.239 32.57 19.913 21.585 25.77 16.135 35.961 15.944 47.981 15.42 59.674 21.63 69.45 31.47 75.44c7.056 3.84 10.157 4.534 18.146 4.058 5.178-.308 8.161-1.154 12.801-3.627zM37.164 87.562a44.989 43.921 0 111.121.219" fill="green" fill-opacity=".988"/>
  <path d="M44.277 69.129a26.01 20.991 0 11.648.104" opacity=".34" fill="none"/>
  <path d="M32.537 114.28a16.656 11.75 0 11.416.059" fill="none"/>
  <path d="M40.106 81.381a33.426 34.453 0 11.833.172" fill="#009400"/>
  <path d="M42.017 69.425a22.106 22.59 0 11.55.112" fill="#fff"/>
</svg>