<?xml version="1.0" encoding="UTF-8"?>
<svg width="92px" height="127px" viewBox="0 0 92 127" version="1.1" xmlns="http://www.w3.org/2000/svg" xmlns:xlink="http://www.w3.org/1999/xlink">
    <title>spot-marker</title>
    <g id="Page-1" stroke="none" stroke-width="1" fill="none" fill-rule="evenodd">
        <g id="spot-marker" fill-rule="nonzero">
            <path d="M45.977003,126.64334 C45.693972,125.95584 39.813862,120.20567 35.603071,114.98067 C10.655836,81.858372 -17.158365,51.082905 15.319943,13.682837 C29.700637,-0.21083367 47.43303,-1.0034227 65.662563,5.4726973 C116.9922,35.174601 79.828906,83.627914 55.427079,115.48067 L45.977003,126.64334 Z M61.417383,75.872046 C95.654166,51.387445 69.185413,4.2391813 31.569429,19.913013 C20.585178,25.769872 15.134954,35.960547 14.944071,47.980664 C14.419576,59.673817 20.629489,69.451701 30.470298,75.441472 C37.525779,79.281546 40.627476,79.975133 48.615995,79.499126 C53.793617,79.19061 56.777122,78.345279 61.417383,75.872046 Z" id="path4127" fill="#C4BB17"></path>
            <path d="M36.163922,87.5616885 C11.9726721,82.5260815 -3.517166,59.369047 1.48702011,35.7203322 C6.49120622,12.0716175 30.1122073,-3.19748733 54.3670522,1.53758309 C78.6218972,6.27265351 94.4119197,29.2356426 89.7159731,52.9445324 C85.0200266,76.6534222 61.599691,92.2143491 37.2851682,87.7805801" id="path4129" fill="#C4BB17"></path>
            <path d="M43.2765772,69.128546 C29.2901599,66.7218975 20.3345507,55.6545374 23.2277697,44.3521889 C26.1209887,33.0498405 39.777709,25.7523287 53.8008944,28.0153427 C67.8240798,30.2783568 76.9532437,41.2529774 74.2382366,52.5840851 C71.5232295,63.9151927 57.9825259,71.3521742 43.9248372,69.23316" id="path4131" fill-opacity="0" fill="#000000" opacity="0.34016395"></path>
            <path d="M31.5374812,114.28 C22.5815119,112.931991 16.8479037,106.736159 18.7017253,100.409469 C20.555547,94.0827794 29.3013786,89.9985481 38.2809077,91.2661527 C47.2604367,92.5337573 53.105193,98.6776841 51.3654895,105.020484 C49.625786,111.363283 40.9542336,115.525596 31.9525952,114.3386" id="path4135" fill-opacity="0" fill="#000080"></path>
            <path d="M39.106324,81.3814713 C21.1324367,77.431447 9.62362098,59.2666291 13.3416858,40.7161266 C17.0597507,22.1656241 34.6099466,10.1882459 52.6310844,13.9025236 C70.6522223,17.6168014 82.3840723,35.6294062 78.8950268,54.2271111 C75.4059812,72.8248161 58.0048779,85.0311051 39.9394,81.5531739" id="path4149" fill="#E7E070"></path>
            <path d="M41.0165068,69.4246327 C29.1299452,66.8347164 21.5188785,54.9245173 23.9777094,42.7614226 C26.4365402,30.5983278 38.0428928,22.7450524 49.9607021,25.1803956 C61.8785114,27.6157387 69.6370759,39.4261355 67.329701,51.6201795 C65.0223262,63.8142234 53.5145723,71.8175898 41.56744,69.5372131" id="path4184" fill="#FFFFFF"></path>
        </g>
    </g>
</svg>