<?xml version="1.0" encoding="UTF-8"?>
<svg width="246px" height="50px" viewBox="0 0 246 50" version="1.1" xmlns="http://www.w3.org/2000/svg" xmlns:xlink="http://www.w3.org/1999/xlink">
    <title>SportySpotsLogo</title>
    <defs>
        <path d="M9.72,28 C11.28,28 12.5,27.57 13.38,26.71 C14.26,25.85 14.7,24.64 14.7,23.08 L14.7,23.08 L14.7,22.06 C14.7,20.86 14.465,19.875 13.995,19.105 C13.525,18.335 12.94,17.8 12.24,17.5 C10.92,16.96 9.41,16.62 7.71,16.48 C6.07,16.34 5.25,15.8 5.25,14.86 L5.25,14.86 L5.25,14.29 C5.25,13.39 5.395,12.785 5.685,12.475 C5.975,12.165 6.53,12.01 7.35,12.01 L7.35,12.01 L8.52,12.01 C9.32,12.01 9.87,12.15 10.17,12.43 C10.47,12.71 10.62,13.24 10.62,14.02 L10.62,14.02 L10.62,14.2 C10.62,14.62 10.83,14.83 11.25,14.83 L11.25,14.83 L13.8,14.83 C14.22,14.83 14.43,14.62 14.43,14.2 L14.43,14.2 L14.43,13.63 C14.43,12.07 13.99,10.86 13.11,10 C12.23,9.14 11,8.71 9.42,8.71 L9.42,8.71 L6.42,8.71 C4.86,8.71 3.64,9.14 2.76,10 C1.88,10.86 1.44,12.07 1.44,13.63 L1.44,13.63 L1.44,14.68 C1.44,15.92 1.675,16.935 2.145,17.725 C2.615,18.515 3.2,19.045 3.9,19.315 C4.6,19.585 5.355,19.805 6.165,19.975 C6.975,20.145 7.73,20.26 8.43,20.32 C9.13,20.38 9.715,20.565 10.185,20.875 C10.655,21.185 10.89,21.63 10.89,22.21 L10.89,22.21 L10.89,22.57 C10.89,23.39 10.735,23.95 10.425,24.25 C10.115,24.55 9.57,24.7 8.79,24.7 L8.79,24.7 L7.38,24.7 C6.58,24.7 6.03,24.56 5.73,24.28 C5.43,24 5.28,23.48 5.28,22.72 L5.28,22.72 L5.28,22.48 C5.28,22.06 5.07,21.85 4.65,21.85 L4.65,21.85 L2.1,21.85 C1.68,21.85 1.47,22.06 1.47,22.48 L1.47,22.48 L1.47,23.08 C1.47,24.64 1.91,25.85 2.79,26.71 C3.67,27.57 4.89,28 6.45,28 L6.45,28 L9.72,28 Z M21.3,28 C21.72,28 21.93,27.79 21.93,27.37 L21.93,27.37 L21.93,21.7 C21.93,21.48 22.05,21.37 22.29,21.37 L22.29,21.37 L26.07,21.37 C27.63,21.37 28.84,20.945 29.7,20.095 C30.56,19.245 30.99,18.04 30.99,16.48 L30.99,16.48 L30.99,13.6 C30.99,12.04 30.56,10.835 29.7,9.985 C28.84,9.135 27.63,8.71 26.07,8.71 L26.07,8.71 L18.75,8.71 C18.33,8.71 18.12,8.92 18.12,9.34 L18.12,9.34 L18.12,27.37 C18.12,27.79 18.33,28 18.75,28 L18.75,28 L21.3,28 Z M25.44,18.04 L22.26,18.04 C22.04,18.04 21.93,17.93 21.93,17.71 L21.93,17.71 L21.93,12.34 C21.93,12.12 22.04,12.01 22.26,12.01 L22.26,12.01 L25.44,12.01 C26.08,12.01 26.53,12.145 26.79,12.415 C27.05,12.685 27.18,13.14 27.18,13.78 L27.18,13.78 L27.18,16.3 C27.18,16.92 27.05,17.365 26.79,17.635 C26.53,17.905 26.08,18.04 25.44,18.04 L25.44,18.04 Z M42.03,28 C43.61,28 44.83,27.58 45.69,26.74 C46.55,25.9 46.98,24.69 46.98,23.11 L46.98,23.11 L46.98,13.6 C46.98,12.02 46.55,10.81 45.69,9.97 C44.83,9.13 43.61,8.71 42.03,8.71 L42.03,8.71 L38.67,8.71 C37.09,8.71 35.87,9.13 35.01,9.97 C34.15,10.81 33.72,12.02 33.72,13.6 L33.72,13.6 L33.72,23.11 C33.72,24.69 34.15,25.9 35.01,26.74 C35.87,27.58 37.09,28 38.67,28 L38.67,28 L42.03,28 Z M41.4,24.7 L39.27,24.7 C38.63,24.7 38.18,24.565 37.92,24.295 C37.66,24.025 37.53,23.57 37.53,22.93 L37.53,22.93 L37.53,13.78 C37.53,13.14 37.66,12.685 37.92,12.415 C38.18,12.145 38.63,12.01 39.27,12.01 L39.27,12.01 L41.4,12.01 C42.04,12.01 42.495,12.145 42.765,12.415 C43.035,12.685 43.17,13.14 43.17,13.78 L43.17,13.78 L43.17,22.93 C43.17,23.57 43.035,24.025 42.765,24.295 C42.495,24.565 42.04,24.7 41.4,24.7 L41.4,24.7 Z M53.76,28 C54.18,28 54.39,27.79 54.39,27.37 L54.39,27.37 L54.39,21.22 C54.39,21 54.51,20.89 54.75,20.89 L54.75,20.89 L56.76,20.89 L59.76,27.37 C59.86,27.63 59.99,27.8 60.15,27.88 C60.31,27.96 60.57,28 60.93,28 L60.93,28 L63.36,28 C63.88,28 64.05,27.76 63.87,27.28 L63.87,27.28 L60.66,20.59 L60.66,20.47 C62.44,19.73 63.33,18.23 63.33,15.97 L63.33,15.97 L63.33,13.63 C63.33,12.07 62.89,10.86 62.01,10 C61.13,9.14 59.91,8.71 58.35,8.71 L58.35,8.71 L51.21,8.71 C50.79,8.71 50.58,8.92 50.58,9.34 L50.58,9.34 L50.58,27.37 C50.58,27.79 50.79,28 51.21,28 L51.21,28 L53.76,28 Z M57.66,17.83 L54.72,17.83 C54.5,17.83 54.39,17.72 54.39,17.5 L54.39,17.5 L54.39,12.34 C54.39,12.12 54.5,12.01 54.72,12.01 L54.72,12.01 L57.66,12.01 C58.3,12.01 58.77,12.15 59.07,12.43 C59.37,12.71 59.52,13.16 59.52,13.78 L59.52,13.78 L59.52,16.12 C59.52,16.72 59.37,17.155 59.07,17.425 C58.77,17.695 58.3,17.83 57.66,17.83 L57.66,17.83 Z M72.96,28 C73.38,28 73.59,27.79 73.59,27.37 L73.59,27.37 L73.59,12.34 C73.59,12.12 73.71,12.01 73.95,12.01 L73.95,12.01 L77.37,12.01 C77.79,12.01 78,11.8 78,11.38 L78,11.38 L78,9.34 C78,8.92 77.79,8.71 77.37,8.71 L77.37,8.71 L66.03,8.71 C65.61,8.71 65.4,8.92 65.4,9.34 L65.4,9.34 L65.4,11.38 C65.4,11.8 65.61,12.01 66.03,12.01 L66.03,12.01 L69.45,12.01 C69.67,12.01 69.78,12.12 69.78,12.34 L69.78,12.34 L69.78,27.37 C69.78,27.79 70,28 70.44,28 L70.44,28 L72.96,28 Z M87.36,28 C87.78,28 87.99,27.79 87.99,27.37 L87.99,27.37 L87.99,20.95 L93.48,9.37 C93.58,9.17 93.585,9.01 93.495,8.89 C93.405,8.77 93.26,8.71 93.06,8.71 L93.06,8.71 L89.88,8.71 C89.54,8.71 89.3,8.92 89.16,9.34 L89.16,9.34 L86.22,16.63 L86.01,16.63 L83.01,9.34 C82.85,8.92 82.61,8.71 82.29,8.71 L82.29,8.71 L79.11,8.71 C78.93,8.71 78.795,8.775 78.705,8.905 C78.615,9.035 78.61,9.19 78.69,9.37 L78.69,9.37 L84.18,20.95 L84.18,27.37 C84.18,27.79 84.39,28 84.81,28 L84.81,28 L87.36,28 Z M103.56,28 C105.12,28 106.34,27.57 107.22,26.71 C108.1,25.85 108.54,24.64 108.54,23.08 L108.54,23.08 L108.54,22.06 C108.54,20.86 108.305,19.875 107.835,19.105 C107.365,18.335 106.78,17.8 106.08,17.5 C104.76,16.96 103.25,16.62 101.55,16.48 C99.91,16.34 99.09,15.8 99.09,14.86 L99.09,14.86 L99.09,14.29 C99.09,13.39 99.235,12.785 99.525,12.475 C99.815,12.165 100.37,12.01 101.19,12.01 L101.19,12.01 L102.36,12.01 C103.16,12.01 103.71,12.15 104.01,12.43 C104.31,12.71 104.46,13.24 104.46,14.02 L104.46,14.02 L104.46,14.2 C104.46,14.62 104.67,14.83 105.09,14.83 L105.09,14.83 L107.64,14.83 C108.06,14.83 108.27,14.62 108.27,14.2 L108.27,14.2 L108.27,13.63 C108.27,12.07 107.83,10.86 106.95,10 C106.07,9.14 104.84,8.71 103.26,8.71 L103.26,8.71 L100.26,8.71 C98.7,8.71 97.48,9.14 96.6,10 C95.72,10.86 95.28,12.07 95.28,13.63 L95.28,13.63 L95.28,14.68 C95.28,15.92 95.515,16.935 95.985,17.725 C96.455,18.515 97.04,19.045 97.74,19.315 C98.44,19.585 99.195,19.805 100.005,19.975 C100.815,20.145 101.57,20.26 102.27,20.32 C102.97,20.38 103.555,20.565 104.025,20.875 C104.495,21.185 104.73,21.63 104.73,22.21 L104.73,22.21 L104.73,22.57 C104.73,23.39 104.575,23.95 104.265,24.25 C103.955,24.55 103.41,24.7 102.63,24.7 L102.63,24.7 L101.22,24.7 C100.42,24.7 99.87,24.56 99.57,24.28 C99.27,24 99.12,23.48 99.12,22.72 L99.12,22.72 L99.12,22.48 C99.12,22.06 98.91,21.85 98.49,21.85 L98.49,21.85 L95.94,21.85 C95.52,21.85 95.31,22.06 95.31,22.48 L95.31,22.48 L95.31,23.08 C95.31,24.64 95.75,25.85 96.63,26.71 C97.51,27.57 98.73,28 100.29,28 L100.29,28 L103.56,28 Z M115.14,28 C115.56,28 115.77,27.79 115.77,27.37 L115.77,27.37 L115.77,21.7 C115.77,21.48 115.89,21.37 116.13,21.37 L116.13,21.37 L119.91,21.37 C121.47,21.37 122.68,20.945 123.54,20.095 C124.4,19.245 124.83,18.04 124.83,16.48 L124.83,16.48 L124.83,13.6 C124.83,12.04 124.4,10.835 123.54,9.985 C122.68,9.135 121.47,8.71 119.91,8.71 L119.91,8.71 L112.59,8.71 C112.17,8.71 111.96,8.92 111.96,9.34 L111.96,9.34 L111.96,27.37 C111.96,27.79 112.17,28 112.59,28 L112.59,28 L115.14,28 Z M119.28,18.04 L116.1,18.04 C115.88,18.04 115.77,17.93 115.77,17.71 L115.77,17.71 L115.77,12.34 C115.77,12.12 115.88,12.01 116.1,12.01 L116.1,12.01 L119.28,12.01 C119.92,12.01 120.37,12.145 120.63,12.415 C120.89,12.685 121.02,13.14 121.02,13.78 L121.02,13.78 L121.02,16.3 C121.02,16.92 120.89,17.365 120.63,17.635 C120.37,17.905 119.92,18.04 119.28,18.04 L119.28,18.04 Z M135.87,28 C137.45,28 138.67,27.58 139.53,26.74 C140.39,25.9 140.82,24.69 140.82,23.11 L140.82,23.11 L140.82,13.6 C140.82,12.02 140.39,10.81 139.53,9.97 C138.67,9.13 137.45,8.71 135.87,8.71 L135.87,8.71 L132.51,8.71 C130.93,8.71 129.71,9.13 128.85,9.97 C127.99,10.81 127.56,12.02 127.56,13.6 L127.56,13.6 L127.56,23.11 C127.56,24.69 127.99,25.9 128.85,26.74 C129.71,27.58 130.93,28 132.51,28 L132.51,28 L135.87,28 Z M135.24,24.7 L133.11,24.7 C132.47,24.7 132.02,24.565 131.76,24.295 C131.5,24.025 131.37,23.57 131.37,22.93 L131.37,22.93 L131.37,13.78 C131.37,13.14 131.5,12.685 131.76,12.415 C132.02,12.145 132.47,12.01 133.11,12.01 L133.11,12.01 L135.24,12.01 C135.88,12.01 136.335,12.145 136.605,12.415 C136.875,12.685 137.01,13.14 137.01,13.78 L137.01,13.78 L137.01,22.93 C137.01,23.57 136.875,24.025 136.605,24.295 C136.335,24.565 135.88,24.7 135.24,24.7 L135.24,24.7 Z M150.39,28 C150.81,28 151.02,27.79 151.02,27.37 L151.02,27.37 L151.02,12.34 C151.02,12.12 151.14,12.01 151.38,12.01 L151.38,12.01 L154.8,12.01 C155.22,12.01 155.43,11.8 155.43,11.38 L155.43,11.38 L155.43,9.34 C155.43,8.92 155.22,8.71 154.8,8.71 L154.8,8.71 L143.46,8.71 C143.04,8.71 142.83,8.92 142.83,9.34 L142.83,9.34 L142.83,11.38 C142.83,11.8 143.04,12.01 143.46,12.01 L143.46,12.01 L146.88,12.01 C147.1,12.01 147.21,12.12 147.21,12.34 L147.21,12.34 L147.21,27.37 C147.21,27.79 147.43,28 147.87,28 L147.87,28 L150.39,28 Z M165.48,28 C167.04,28 168.26,27.57 169.14,26.71 C170.02,25.85 170.46,24.64 170.46,23.08 L170.46,23.08 L170.46,22.06 C170.46,20.86 170.225,19.875 169.755,19.105 C169.285,18.335 168.7,17.8 168,17.5 C166.68,16.96 165.17,16.62 163.47,16.48 C161.83,16.34 161.01,15.8 161.01,14.86 L161.01,14.86 L161.01,14.29 C161.01,13.39 161.155,12.785 161.445,12.475 C161.735,12.165 162.29,12.01 163.11,12.01 L163.11,12.01 L164.28,12.01 C165.08,12.01 165.63,12.15 165.93,12.43 C166.23,12.71 166.38,13.24 166.38,14.02 L166.38,14.02 L166.38,14.2 C166.38,14.62 166.59,14.83 167.01,14.83 L167.01,14.83 L169.56,14.83 C169.98,14.83 170.19,14.62 170.19,14.2 L170.19,14.2 L170.19,13.63 C170.19,12.07 169.75,10.86 168.87,10 C167.99,9.14 166.76,8.71 165.18,8.71 L165.18,8.71 L162.18,8.71 C160.62,8.71 159.4,9.14 158.52,10 C157.64,10.86 157.2,12.07 157.2,13.63 L157.2,13.63 L157.2,14.68 C157.2,15.92 157.435,16.935 157.905,17.725 C158.375,18.515 158.96,19.045 159.66,19.315 C160.36,19.585 161.115,19.805 161.925,19.975 C162.735,20.145 163.49,20.26 164.19,20.32 C164.89,20.38 165.475,20.565 165.945,20.875 C166.415,21.185 166.65,21.63 166.65,22.21 L166.65,22.21 L166.65,22.57 C166.65,23.39 166.495,23.95 166.185,24.25 C165.875,24.55 165.33,24.7 164.55,24.7 L164.55,24.7 L163.14,24.7 C162.34,24.7 161.79,24.56 161.49,24.28 C161.19,24 161.04,23.48 161.04,22.72 L161.04,22.72 L161.04,22.48 C161.04,22.06 160.83,21.85 160.41,21.85 L160.41,21.85 L157.86,21.85 C157.44,21.85 157.23,22.06 157.23,22.48 L157.23,22.48 L157.23,23.08 C157.23,24.64 157.67,25.85 158.55,26.71 C159.43,27.57 160.65,28 162.21,28 L162.21,28 L165.48,28 Z" id="path-1"></path>
    </defs>
    <g id="Page-1" stroke="none" stroke-width="1" fill="none" fill-rule="evenodd">
        <g id="Logo">
            <g id="Group">
                <path d="M4.8,-2.66453526e-15 L45.2,-2.66453526e-15 L45.2,-2.66453526e-15 C47.8509668,-2.66453526e-15 50,2.1490332 50,4.8 L50,45.2 L50,45.2 C50,47.8509668 47.8509668,50 45.2,50 L4.8,50 L4.8,50 C2.1490332,50 0,47.8509668 0,45.2 L0,4.8 L0,4.8 C0,2.1490332 2.1490332,-2.66453526e-15 4.8,-2.66453526e-15 Z" id="Rectangle-6" fill="#07D654" fill-rule="nonzero"></path>
                <polygon id="Rectangle" fill="#FFFFFF" fill-rule="nonzero" points="9 7 42 7 42 43 9 43"></polygon>
                <polygon id="Rectangle-3-Copy-5" fill="#248232" fill-rule="nonzero" points="0 28 34 28 34 35 0 35"></polygon>
                <polygon id="Rectangle-3-Copy-4" fill="#248232" fill-rule="nonzero" points="16 14 50 14 50 21 16 21"></polygon>
                <polygon id="Rectangle-2" fill="#2BA84A" fill-rule="nonzero" points="0 7 9 7 9 43 0 43"></polygon>
                <polygon id="Rectangle-2-Copy-2" fill="#2BA84A" fill-rule="nonzero" points="41 7 50 7 50 43 41 43"></polygon>
                <polygon id="Rectangle-3-Copy-2" points="0 43 50 43 50 50 0 50"></polygon>
                <polygon id="Rectangle-3-Copy" fill="#248232" fill-rule="nonzero" points="9 0 42 0 42 7 9 7"></polygon>
                <polygon id="Rectangle-3-Copy-3" fill="#248232" fill-rule="nonzero" points="9 43 42 43 42 50 9 50"></polygon>
            </g>
            <g id="SPORTYSPOTS" transform="translate(74.000000, 5.000000)" fill-rule="nonzero">
                <g>
                    <use fill="#000000" xlink:href="#path-1"></use>
                    <use fill="#FFFFFF" xlink:href="#path-1"></use>
                </g>
            </g>
        </g>
    </g>
</svg>